<svg xmlns="http://www.w3.org/2000/svg" version="1.1" xmlns:xlink="http://www.w3.org/1999/xlink" xmlns:svgjs="http://svgjs.dev/svgjs" width="2000" height="2250" viewBox="0 0 2000 2250"><g transform="matrix(1,0,0,1,0.00014687500004129106,0)"><svg viewBox="0 0 320 360" data-background-color="#89939e" preserveAspectRatio="xMidYMid meet" height="2250" width="2000" xmlns="http://www.w3.org/2000/svg" xmlns:xlink="http://www.w3.org/1999/xlink"><g id="tight-bounds" transform="matrix(1,0,0,1,0.000023499999997511622,0)"><svg viewBox="0 0 320 360" height="360" width="320"><g><svg></svg></g><g><svg viewBox="0 0 320 360" height="360" width="320"><g><path transform="translate(-74.99272,-51.79039) scale(4.65793,4.65793)" d="M20.6 59.9l0.8 1-0.4-1.3c-0.1-0.6-0.8 0.1-0.4 0.3M21.5 59.3c0.3 0.5 0.6 1 0.6 1.5 0 0.7 0.6 1 1.1 1.2-0.7-0.8-1.1-3-1.7-2.7M59.9 16.9c1.7 0 3.3-0.2 5.1 0.2 4.4 1.1 8.1 3.3 10.6 6.4l7 11.2c0.3 2.8 0.9 5.9 0.8 9.3 0.7 0 0.6-1 1.4-1.2-0.8 2-1.2 4.5-1.4 7.4-0.5-1.6 0-4 0.1-5.3-0.7 1.1-1.1 0.3-1.1-0.2 0.1-0.8-0.3-0.7-0.6-1-1.1-1-1.8-2.1-2.6-3.8 0.5-1.3 0.6-3.2-1-4.2-0.5-0.3-1.1-0.8-1.4-1.6-0.4-1.1-1.1-2.4-0.9-4.1 0.1-0.5-1.5 1.1-2.4 0.4-3.9-2.7-7.8-5.8-12.5-8.4-2.5 0-4.3-0.9-5.2-2-0.8-1-0.2-2.3 1-2.4 0.7 0 1.5-0.2 2.1 0.2 0.1-0.4 0.5-0.9 1-0.9M50 14.6l0.2 0.1c1 0.2 1.5 1.6 2.6 1.1 0 0.7 0.1 1.4-0.1 1.9-0.3 0.8-1.2 0.8-1.9 0.8-6.7-0.4-10.6 2.4-14.7 4.8-1.1 0.7-2.3 1.2-3.2 2.1-4.3 4-9 7.7-10.1 15.1l-0.9 8.2c-0.1 0.9-1.1 1.8-0.9 2.9l0.7 4.9c-0.7-0.7-1.1 0.2-0.9 0.6 0.1 0.3 0.5 1.3 1.1 0.4 0.8 1.5 1.6 4.4 2.7 5.7 3.4 4 7.8 7.6 11.4 11.2 0.9-0.2 1.6-0.2 1.8-0.8 0.3 0.6-0.3 1.2-0.8 1.3 1.6 1 3.4 1.9 5.8 2.1 3.1 0.2 6 0.7 8.7 1.4 1.4-0.4 2.8-0.6 4.3-0.7 0.5 0 0.8-0.8 1.4-1l0.1-1c0.6 0.9 0.5-0.3 0.1-0.9 0.7 0.6 0.9 1.1 1.2 1.5 0-0.3 0.8-1.4 0.8-0.1l0.2-1.3c0.3-0.2 0.4 1.1 0.7 0.2 0.3-0.9 0.9-0.2 1.5-0.5-0.2 0.4-0.1 1.2 0.6 0.7l0.8-0.7c0.5 1.2 1.3 0.7 1.7 0.5 4.4-2.8 8.8-6.1 13-9.4l-0.1 1.3 0.5-1.6c0.5 0.5 0.9 0.1 1.1-0.2 0.6-1 1.4-2 2.7-2.9-1.6 4.3-3.5 7.7-5.9 10.5l-1 1.2c0 0.7-0.2 1.6-1 1.7-0.4 0.1-1.2-0.2-1.8 0.4-0.3 0.4 0.7 1.2-0.1 0.6-0.7-0.5-1.4 0-2.2 0.2-0.6 0.2 0.4 0.8 0.6 1.2 0.2 0.4 0.4 0.8 0.3 1.3l-1.1-1.2c-1.3 0.7-2.1 2-3.2 3-0.5 0.4-0.3 1.1-0.3 1.7-0.7 0-1.5-0.2-1.9 0.2-0.3 0.4-0.2 1-0.2 1.6-1-0.1-1.1-1.6-2-1.3-0.9 0.2-1.9 0.3-2.7 0.8 0.6 1.2-1 0.5-0.8 0.7-1.5-0.9-2.8-1.6-4.4-1-3.4-1.1-7.6-0.6-10.7-0.2 0-0.5 0.1-1-0.1-1.1-0.2 0.5-0.8 0.3-0.7 0.3-1.9-1.3-3.8-2.1-5.8-3.2-1.8 0.2-3.5-0.7-4-1.2-1.4-1.3-3-0.6-4.3-0.9-2.8-0.7-3.8-3.6-4.1-5.6-0.2-1-1-1.4-1.3-1.3-1.3-4.2-3.3-8-4.9-11.9-0.4-1-0.3-2-0.3-3.1 0.5 0.2 1 0.1 0.9-0.6-0.5-3.3-1.7-5.8-3-8.2 0.7-3.4 0.8-7.4 2.4-10.4 1.4-2.7 4-4.1 5.8-6.4 0.6-0.8 0.6-1.9 1.2-2.6 2-2 4-4.1 6.2-5.9 1-0.8 2.2 0 3.7-0.3 0.5-1.8 2.5-3.4 4.4-2.9 0.8 0.2 2.4-1.9 2.9-2.1 0.8-0.3 0.4 0.8 0.4 1.5 1.9-1.5 4.5-2.3 6.9-3.2" fill="#000000" fill-rule="nonzero" stroke="none" stroke-width="1" stroke-linecap="butt" stroke-linejoin="miter" stroke-miterlimit="10" stroke-dasharray="" stroke-dashoffset="0" font-family="none" font-weight="none" font-size="none" text-anchor="none" style="mix-blend-mode: normal" data-fill-palette-color="tertiary"></path></g><g transform="matrix(1,0,0,1,64,93.8914043778111)"><svg viewBox="0 0 192 172.2171912443778" height="172.2171912443778" width="192"><g><svg viewBox="0 0 192 172.2171912443778" height="172.2171912443778" width="192"><g><svg viewBox="0 0 192 172.2171912443778" height="172.2171912443778" width="192"><g transform="matrix(1,0,0,1,0,104.09125421289355)"><svg viewBox="0 0 192 68.12593703148426" height="68.12593703148426" width="192"><g id="textblocktransform"><svg viewBox="0 0 192 68.12593703148426" height="68.12593703148426" width="192" id="textblock"><g><svg viewBox="0 0 192 68.12593703148426" height="68.12593703148426" width="192"><g transform="matrix(1,0,0,1,0,0)"><svg width="192" viewBox="0.95 -34.9 100.05 35.5" height="68.12593703148426" data-palette-color="#ffffff"><path d="M14.45 0.6Q8.35 0.6 4.65-1.4 0.95-3.4 0.95-7.75L0.95-7.75Q0.95-9.5 1.35-10.7L1.35-10.7 6.05-10.7Q5.65-9.35 5.65-8.55L5.65-8.55Q5.65-6.05 7.88-4.75 10.1-3.45 13.9-3.45L13.9-3.45Q18.85-3.45 21.75-5.1 24.65-6.75 24.65-9.75L24.65-9.75Q24.65-11.4 23.5-12.5 22.35-13.6 20.63-14.28 18.9-14.95 15.95-15.8L15.95-15.8Q12.35-16.8 10.08-17.75 7.8-18.7 6.23-20.45 4.65-22.2 4.65-25L4.65-25Q4.65-28.25 6.63-30.48 8.6-32.7 11.83-33.8 15.05-34.9 18.75-34.9L18.75-34.9Q24.5-34.9 27.93-32.98 31.35-31.05 31.35-27.1L31.35-27.1Q31.35-25.9 31.1-24.65L31.1-24.65 26.45-24.65Q26.65-25.4 26.65-26.2L26.65-26.2Q26.65-28.4 24.63-29.63 22.6-30.85 19.2-30.85L19.2-30.85Q15-30.85 12.3-29.5 9.6-28.15 9.6-25.55L9.6-25.55Q9.6-24 10.73-22.95 11.85-21.9 13.55-21.25 15.25-20.6 18.15-19.8L18.15-19.8Q21.85-18.75 24.13-17.8 26.4-16.85 28.03-15.08 29.65-13.3 29.65-10.45L29.65-10.45Q29.65-6.65 27.53-4.17 25.4-1.7 21.95-0.55 18.5 0.6 14.45 0.6L14.45 0.6ZM34.25 0L40.3-34.3 57.65-34.3Q62.4-34.3 64.85-31.98 67.3-29.65 67.3-25.65L67.3-25.65Q67.3-21.75 65.02-18.8 62.75-15.85 59.1-14.75L59.1-14.75 64.35 0 59.25 0 54.3-14.15 41.5-14.15 39 0 34.25 0ZM42.25-18.3L55.1-18.3Q58.2-18.3 60.3-20.23 62.4-22.15 62.4-25.4L62.4-25.4Q62.4-27.7 61.07-28.93 59.75-30.15 57.15-30.15L57.15-30.15 44.3-30.15 42.25-18.3ZM78.4 0L83.7-30.15 71.89-30.15 72.64-34.3 101-34.3 100.25-30.15 88.45-30.15 83.15 0 78.4 0Z" opacity="1" transform="matrix(1,0,0,1,0,0)" fill="#000000" class="wordmark-text-0" data-fill-palette-color="primary" id="text-0"></path></svg></g></svg></g></svg></g></svg></g><g transform="matrix(1,0,0,1,39.91061150275925,0)"><svg viewBox="0 0 112.1787769944815 94.15004497751124" height="94.15004497751124" width="112.1787769944815"><g><svg xmlns="http://www.w3.org/2000/svg" xml:space="preserve" viewBox="11 19 56 47" x="0" y="0" height="94.15004497751124" width="112.1787769944815" class="icon-icon-0" data-fill-palette-color="accent" id="icon-0"><path d="M64 66H14c-1.7 0-3-1.3-3-3V28c0-1.7 1.3-3 3-3h50c1.7 0 3 1.3 3 3v35c0 1.7-1.3 3-3 3M14 27c-0.6 0-1 0.4-1 1v35c0 0.6 0.4 1 1 1h50c0.6 0 1-0.4 1-1V28c0-0.6-0.4-1-1-1zM47 25h-2c0-2.2-1.8-4-4-4h-4c-2.2 0-4 1.8-4 4h-2c0-3.3 2.7-6 6-6h4c3.3 0 6 2.7 6 6" fill="#000000" data-fill-palette-color="accent"></path><path d="M12 39h24v2H12zM42 39h24v2H42z" fill="#000000" data-fill-palette-color="accent"></path><path d="M43 44h-8.1v-8H43z m-6.1-2H41v-4h-4.1z" fill="#000000" data-fill-palette-color="accent"></path></svg></g></svg></g><g></g></svg></g></svg></g></svg></g></svg></g><defs></defs></svg><rect width="320" height="360" fill="none" stroke="none" visibility="hidden"></rect></g></svg></g></svg>